<?xml version="1.0" encoding="UTF-8"?>
<!DOCTYPE svg PUBLIC "-//W3C//DTD SVG 1.1//EN" "http://www.w3.org/Graphics/SVG/1.1/DTD/svg11.dtd">
<!-- Creator: CorelDRAW -->
<svg xmlns="http://www.w3.org/2000/svg" xml:space="preserve" width="2855.61mm" height="960mm" version="1.1" style="shape-rendering:geometricPrecision; text-rendering:geometricPrecision; image-rendering:optimizeQuality; fill-rule:evenodd; clip-rule:evenodd"
viewBox="0 0 285560.84 95999.99"
 xmlns:xlink="http://www.w3.org/1999/xlink"
 xmlns:xodm="http://www.corel.com/coreldraw/odm/2003">
 <defs>
  <style type="text/css">
   <![CDATA[
    .fil0 {fill:#D2AE6D}
   ]]>
  </style>
 </defs>
 <g id="__x0023_Layer_x0020_1">
  <metadata id="CorelCorpID_0Corel-Layer"/>
  <path class="fil0" d="M19488.05 66744.89l38.37 -53734.06 -19526.42 15.94 0 52884.04 0 20339.92 20339.92 0 30918.98 0 -38.08 -19489.9 -31732.77 -15.94zm109039.76 0.07l22.95 -53718.11 -19442.36 0 -28.64 45449.4 -8072.61 8268.71 -20481.78 0 18.31 -53718.11 -19526.43 0 0 73223.88 19846.74 0 28160.42 0 19503.4 -19505.77zm157019.16 1606.61l-68342.43 0 0 17899.23 68342.43 0 0 -17899.23zm-68328.56 -48936.29l0 11510.72 68342.43 0 0 -17899.23 -68342.43 0 0 0.96 -21197.69 0.59 -21937.23 21937.23 -34965.69 -34965.55 -1.77 27659.34 21137.38 21136.28 -37453.03 37453.04 27582.13 -0.67 23662.52 -23661.41 33415.11 33413.41 0 -27657.94 -19585.03 -19584.88 29343.3 -29341.89zm-53237.1 41318.19l1513.29 -1513.29 -2821.99 -2478.69 1308.7 3991.98zm23255.23 -19705.11l-1243.27 1243.27 -4368.14 -6707.54 1243.45 -1243.46 4367.96 6707.73zm-24580.29 13504.68l5963.24 5112.45 -1251.71 1251.7 -915.93 -801.99 -1996 1996 433.46 1284.47 -1202.58 1202.57 -2658.35 -8417.33 1627.87 -1627.87zm36833.49 -30714.83l1194.33 1832.05c256.29,398.34 378.9,761.09 368.11,1088.13 -10.88,327.29 -193.72,668.05 -548.22,1022.55l-3509.17 3509.17 -850.94 -1308.78 2953.04 -2953.04c98.27,-98.27 151.51,-189.34 159.54,-274.08 8.44,-84.17 -28.58,-189.16 -110.21,-314.72l-605.27 -932.51c-16.5,-27.48 -43.66,-60.15 -82.01,-98.5 -98.08,-98.09 -218.17,-76.12 -359.91,65.62l-2184.02 2184.02c-223.63,223.63 -433.64,338.23 -630.01,343.7 -196.27,5.41 -381.56,-78.95 -556.15,-253.55 -65.52,-65.52 -136.23,-152.72 -212.55,-261.78l-1128.8 -1734.2c-256.61,-398.03 -379.22,-760.77 -368.24,-1088.01 10.71,-327.12 196.29,-670.62 556.26,-1030.58l3443.89 -3443.89 834.21 1276.02 -2936.54 2936.55c-87.4,87.39 -130.97,169.42 -131.05,245.62 0,76.33 38.16,174.71 114.57,294.45l572.75 883.49c16.16,27.18 31.21,50.59 44.66,69.5 13.74,19.04 28.79,36.94 44.97,53.11 82.01,82.01 182.84,62.76 302.89,-57.28l2216.9 -2216.91c228.92,-228.92 442.81,-344.72 642.13,-347.63 199.04,-2.67 385.94,83.31 560.32,257.69 70.93,70.92 139,155.5 204.52,253.79zm-11215.85 7305.65c-130.73,130.73 -199,240.13 -204.49,327.21 -5.5,87.29 41,207.27 139.19,359.77l2118.48 3280.28c21.99,32.96 40.9,60.02 57.4,81.98 16.39,21.91 35.4,43.55 57.28,65.43 60.05,60.05 122.72,84.47 188.02,73.49 65.54,-10.58 149.99,-68.19 253.58,-171.78l2519.56 -2519.56 883.28 1358.03 -3132.81 3132.81c-278.17,278.17 -526.34,428.26 -744.49,450.03 -218.15,21.99 -430.72,-70.92 -637.97,-278.17 -54.34,-54.34 -107.75,-113.26 -159.54,-176.04 -52.08,-62.46 -105,-137.34 -159.63,-224.76l-2846.5 -4368.04c-256.61,-398.03 -377.8,-762.19 -364.06,-1092.18 13.63,-330.05 194.84,-669.18 544.04,-1018.38l3116.66 -3116.65 875.13 1333.39 -2503.13 2503.14zm-9668.17 7459.63l4368.15 6707.54 -1243.48 1243.48 -1807.77 -2773.14 -2167.84 2167.84 1807.98 2772.92 -1243.48 1243.47 -4368.04 -6707.63 1243.46 -1243.45 1742.15 2674.74 2167.84 -2167.85 -1742.13 -2674.76 1243.16 -1243.16zm-5429.18 12938.34l-2225.11 2225.11 1407.07 2159.4 -1243.47 1243.48 -3190.4 -4908.14 1243.46 -1243.46 990.01 1529.9 1709.77 -1709.78c103.38,-103.38 154.05,-197.39 151.3,-282.37 -2.76,-84.34 -53.22,-202.77 -151.3,-355.81l-850.9 -1325.06c-43.57,-65.11 -76.22,-109.17 -97.89,-130.84 -60.05,-60.04 -117.33,-81.71 -171.97,-65.53 -54.75,16.49 -120.15,62.78 -196.46,139.08l-2952.93 2952.93 -850.73 -1308.56 3468.29 -3468.28c278.29,-278.3 526.34,-428.26 744.59,-450.14 218.04,-21.67 430.7,70.94 637.95,278.19 54.53,54.53 106.35,114.66 155.18,179.98 49.35,65.22 103.89,138.87 163.91,220.91l1439.43 2208.62c256.63,398.05 379.22,760.77 368.23,1088 -10.68,327.11 -193.53,667.87 -548.03,1022.37zm-16521.99 9315.42c226.2,-24.32 443.01,66.94 650.28,274.21 49.04,49.04 96.77,104.91 143.05,167.69 46.42,62.86 94.12,129.73 143.16,200.14l949.11 1456.22c223.13,343.81 314.62,653 273.8,928.44 -40.9,275.52 -145.78,519.83 -314.89,732.27 185.47,-163.72 372.18,-271.47 560.31,-323.43 188.25,-51.29 369.44,9.86 543.85,184.26l85.97 85.98c29.92,29.91 55.87,66.64 77.75,110.48l1521.44 2323 -1243.27 1243.27 -1431.5 -2183.83c-21.88,-32.87 -40.89,-60.03 -57.28,-81.88 -16.27,-21.78 -32.76,-40.9 -49.15,-57.29 -87.2,-87.21 -207.17,-54.34 -359.88,98.37l-1791.49 1791.49 1627.79 2494.65 -1243.48 1243.48 -3190.31 -4908.23 1243.47 -1243.47 842.68 1300.55 1701.23 -1701.23c120.07,-120.07 181.51,-219.38 184.48,-298.63 2.73,-78.85 -39.69,-189.46 -126.9,-331.41l-703.48 -1096.02c-22.2,-32.54 -42.45,-61.14 -61.55,-85.76 -18.93,-24.44 -36.85,-44.99 -53.22,-61.36 -65.32,-65.32 -127.99,-89.75 -187.93,-73.78 -59.94,16.6 -136.65,70.92 -229.34,163.62l-2936.57 2936.56 -850.6 -1308.48 3517.65 -3517.65c283.47,-283.47 538.44,-437.53 764.82,-462.23zm-6434.56 8340.5l-2879.45 2879.45c-109.23,109.23 -164.85,203.13 -167.62,282.19 -2.74,78.85 45.01,195.13 143.07,347.55l2225.15 3419.25c43.44,65.83 73.44,106.43 89.94,122.93 54.53,54.53 107.75,74.76 159.52,61.23 51.8,-13.34 118.54,-61.34 200.47,-143.26l1774.99 -1774.99 -989.6 -1529.67 -1096.23 1096.23 -703.78 -1079.9 2257.76 -2257.76 2535.87 3893.81 -3476.63 3476.63c-278,278 -527.44,429.36 -748.43,453.97 -220.63,24.47 -432.05,-64.07 -633.81,-265.83 -103.68,-103.67 -209.9,-242.46 -319.09,-417.38l-2846.63 -4367.91c-256.46,-398.18 -379.09,-760.9 -368.11,-1088.13 10.69,-327.11 193.53,-667.87 548.24,-1022.58l3419.21 -3419.21 875.16 1333.38zm66984.55 -28533.78l0 17899.22 68342.43 0 0 -17899.22 -68342.43 0z"/>
 </g>
</svg>
